<svg width="47" height="46" viewBox="0 0 47 46" fill="none" xmlns="http://www.w3.org/2000/svg">
<path d="M39.4146 1H7.58543C3.9484 1 1 3.9424 1 7.57204V34.9639C1 38.5935 3.9484 41.5359 7.58543 41.5359H39.4146C43.0516 41.5359 46 38.5935 46 34.9639V7.57204C46 3.9424 43.0516 1 39.4146 1Z" fill="#2B2B36" stroke="#2B2B36" stroke-width="1.03891"/>
<path d="M12.2021 5.99329L12.6127 42.6381C12.6127 42.6381 8.71169 50.2024 3.16808 42.6381C-2.37553 35.0738 8.09573 34.7376 8.09573 34.7376L7.89041 9.85949C7.89041 9.85949 9.32764 7.50615 12.2021 5.99329Z" fill="url(#paint0_linear_3_44)"/>
<path d="M13.1951 8.22557L13.2817 11.4851C13.2817 11.4851 21.6771 24.5941 26.6104 19.9174C31.5438 15.2406 34.9193 5.95808 34.9193 11.4142C34.9193 16.8704 35.0924 36.2933 35.0924 36.2933C35.0924 36.2933 39.5588 36.6091 38.8403 32.8275C38.2344 29.6388 40.1123 1.42308 34.5731 4.96605C27.917 9.22337 26.6331 19.5149 21.4174 15.9492C19.3969 14.5679 13.1951 8.22557 13.1951 8.22557Z" fill="url(#paint1_linear_3_44)"/>
<defs>
<linearGradient id="paint0_linear_3_44" x1="11.7915" y1="6.07733" x2="9.3095" y2="45.572" gradientUnits="userSpaceOnUse">
<stop stop-color="#C62B36"/>
<stop offset="1" stop-color="#007592"/>
</linearGradient>
<linearGradient id="paint1_linear_3_44" x1="27.2163" y1="2.62769" x2="27.6224" y2="31.116" gradientUnits="userSpaceOnUse">
<stop stop-color="#C62B36"/>
<stop offset="1" stop-color="#007592"/>
</linearGradient>
</defs>
</svg>
